<svg width="184" height="163" viewBox="0 0 184 163" fill="none" xmlns="http://www.w3.org/2000/svg">
<g clip-path="url(#clip0_18_5)">
<path d="M32.778 30.9032C29.3802 33.4093 28.6548 38.1919 31.1555 41.5971C33.6561 45.0023 38.4284 45.7293 41.8262 43.2232L64.6759 26.3501L87.6973 26.3501C89.3771 26.3501 90.7515 27.7275 90.7515 29.411C90.7515 31.0945 89.3771 32.4719 87.6973 32.4719L72.426 32.4719C69.0473 32.4719 66.3175 35.2075 66.3175 38.5936C66.3175 41.9797 69.0473 44.7154 72.426 44.7154L102.644 44.7154C108.199 44.7154 113.582 42.8214 117.915 39.3588L126.486 32.4719L133.511 32.4719C136.89 32.4719 139.62 29.7362 139.62 26.3501L139.62 14.1067C139.62 10.7206 136.89 7.98492 133.511 7.98492L72.3306 7.98492C66.7947 7.98492 61.3925 9.76405 56.9257 13.0545L32.7589 30.9032L32.778 30.9032Z" fill="#6C9F25"/>
<path d="M112.263 124.923C114.927 121.949 114.819 117.108 112.023 114.098C109.226 111.089 104.808 111.061 102.144 114.035L84.234 134.057L63.4812 137.396C61.9669 137.639 60.5086 136.474 60.2404 134.807C59.9722 133.14 60.9918 131.577 62.5061 131.333L76.2725 129.119C79.3183 128.629 81.3433 125.524 80.8039 122.171C80.2645 118.818 77.368 116.505 74.3222 116.994L47.082 121.376C42.0745 122.182 37.5235 124.838 34.1689 128.895L27.5395 136.958L21.207 137.976C18.1612 138.466 16.1362 141.571 16.6756 144.924L18.6258 157.049C19.1652 160.402 22.0617 162.715 25.1075 162.225L80.259 153.354C85.2493 152.551 89.8358 150.006 93.3383 146.1L112.28 124.921L112.263 124.923Z" fill="#6C9F25"/>
<path fill-rule="evenodd" clip-rule="evenodd" d="M74.9411 58.5833C73.138 56.8673 70.5484 56.0139 67.1723 56.8424C66.3423 55.7106 65.2288 54.8175 63.9439 54.2528C61.8672 53.3606 59.2605 53.3793 56.3212 55.0689C53.2466 56.5036 51.7653 58.6129 51.3565 60.8263C51.0798 62.3309 51.3207 63.7579 51.7171 64.8832C49.1089 67.1651 48.3239 69.7702 48.6985 72.2246C49.0234 74.3478 50.1829 76.1618 51.3207 77.3929C51.1214 78.2489 51.1013 79.1369 51.2617 80.0011C51.7435 79.6591 51.972 79.5006 52.4959 79.2877C53.3508 78.9395 54.0502 78.8991 54.8274 78.8991C57.2756 78.8991 58.6916 79.1835 61.0263 79.8317C62.3494 80.1852 63.6199 80.712 64.805 81.3985L65.2464 81.2089C65.8014 80.9683 66.4145 80.8948 67.0106 80.9975L72.4712 81.941C72.2607 80.814 72.1396 79.6721 72.109 78.526C72.0502 75.8003 72.7487 73.1118 74.1269 70.7595C75.505 68.4072 77.5087 66.4833 79.9151 65.2019C79.2864 64.5445 78.5242 64.0294 77.6799 63.691C77.3224 62.0543 76.497 60.0647 74.9411 58.5833ZM59.6678 60.3196C59.8507 60.229 60.0498 60.1754 60.2535 60.1617C60.4572 60.1481 60.6616 60.1748 60.8551 60.2401C61.0485 60.3055 61.2271 60.4084 61.3808 60.5428C61.5345 60.6773 61.6601 60.8407 61.7506 61.0237L62.9801 63.5107L65.4873 60.8263C65.7721 60.5413 66.1565 60.378 66.5594 60.3708C66.9622 60.3637 67.3522 60.5132 67.6469 60.788C67.9416 61.0628 68.1181 61.4413 68.1392 61.8436C68.1603 62.246 68.0243 62.6409 67.7599 62.9449L64.4537 66.4858L65.7019 69.0054L67.7707 67.1246C68.0776 66.862 68.4747 66.7291 68.8779 66.7542C69.2811 66.7793 69.6587 66.9603 69.9306 67.259C70.2026 67.5577 70.3477 67.9505 70.335 68.3542C70.3224 68.758 70.1531 69.1409 69.8629 69.422L67.135 71.9012L68.7764 75.2183C68.956 75.5875 68.9822 76.0128 68.8494 76.4012C68.7165 76.7897 68.4353 77.1098 68.0672 77.2917C67.6991 77.4736 67.2741 77.5025 66.8848 77.372C66.4955 77.2416 66.1736 76.9624 65.9894 76.5955L64.2874 73.1556L61.2346 73.7727C60.8395 73.8339 60.4361 73.7405 60.1081 73.5119C59.7802 73.2834 59.5528 72.9373 59.4734 72.5455C59.394 72.1537 59.4685 71.7464 59.6816 71.4082C59.8946 71.0699 60.2298 70.8268 60.6175 70.7292L62.862 70.2754L61.6247 67.7775L56.901 68.4878C56.6953 68.5275 56.4837 68.5251 56.279 68.481C56.0743 68.4368 55.8806 68.3517 55.7096 68.2308C55.5385 68.1099 55.3937 67.9556 55.2838 67.7774C55.1738 67.5991 55.1011 67.4004 55.0698 67.1933C55.0386 66.9862 55.0495 66.7749 55.102 66.5722C55.1545 66.3694 55.2474 66.1793 55.3751 66.0134C55.5029 65.8474 55.6629 65.709 55.8455 65.6064C56.0281 65.5038 56.2296 65.4392 56.4378 65.4164L60.1776 64.8537L58.9636 62.3993C58.7817 62.0301 58.7536 61.6038 58.8857 61.2139C59.0177 60.824 59.2989 60.5023 59.6678 60.3196Z" fill="black"/>
<path fill-rule="evenodd" clip-rule="evenodd" d="M76.7606 82.726L75.971 82.5721C75.6896 81.805 75.4845 81.0121 75.3586 80.2048L75.3353 80.1115C75.1767 79.4633 75.071 78.8929 75.0617 78.4638C75.0279 76.8002 75.3459 75.1482 75.9949 73.616C76.644 72.0838 77.6094 70.706 78.828 69.5728C78.9233 69.4827 79.0202 69.4044 79.1186 69.3381C82.2507 66.5402 86.6309 66.0537 90.0226 68.8298C89.9837 65.0185 91.5303 61.2942 95.2764 59.1336L96.5898 61.4061C93.4174 63.2356 92.2376 66.6599 92.763 70.3205C99.9986 67.9423 105.63 74.7862 103.516 82.6653C102.862 85.0834 101.48 87.2417 99.5571 88.8471L98.609 88.516C95.8002 87.5414 92.264 86.3616 89.4381 85.5829C86.69 84.8244 83.1538 84.0394 80.3248 83.4487C79.1382 83.2007 77.9501 82.9598 76.7606 82.726ZM97.6173 75.4064C98.0217 75.3279 98.4407 75.4131 98.7823 75.6434C99.1238 75.8736 99.3601 76.23 99.439 76.6343C99.7235 78.0505 99.6124 79.5177 99.118 80.8749C98.6237 82.2322 97.7651 83.427 96.6365 84.3285C96.3166 84.5882 95.9066 84.7102 95.4967 84.6677C95.0869 84.6251 94.7107 84.4215 94.451 84.1016C94.1913 83.7817 94.0693 83.3717 94.1119 82.9619C94.1544 82.552 94.358 82.1758 94.6779 81.9161C95.3681 81.3685 95.8931 80.6405 96.1949 79.8127C96.4967 78.985 96.5635 78.0899 96.3878 77.2266C96.3102 76.8226 96.3959 76.4044 96.626 76.0636C96.8562 75.7227 97.2121 75.4869 97.6157 75.4079M55.1548 109.621C59.8179 109.362 62.7028 108.036 64.481 106.094C65.1883 107.043 66.3743 107.593 67.6582 107.391C69.2669 107.137 70.8722 106.862 72.4737 106.565L72.4737 99.2832L75.9399 99.2832L75.9399 105.896C80.3233 105.01 85.6548 103.792 91.5319 102.156L91.5319 97.5532L94.9982 97.5532L94.9982 101.159C97.3655 100.455 99.8043 99.6858 102.29 98.8464C102.938 98.6488 103.505 98.2482 103.908 97.7038C104.311 97.1593 104.529 96.4998 104.529 95.8224C104.529 95.1449 104.311 94.4854 103.908 93.941C103.505 93.3965 102.938 92.996 102.29 92.7983C96.47 90.8379 90.5682 89.1301 84.6009 87.6798L84.6009 97.5532L81.1362 97.5532L81.1362 86.8637C75.4005 85.5611 70.7063 84.7342 67.6582 84.2524C67.0605 84.156 66.4478 84.2261 65.8873 84.455C65.3268 84.684 64.8403 85.0629 64.481 85.5503C62.7028 83.6073 59.8179 82.2814 55.1548 82.0218C54.9284 82.0111 54.7023 82.0471 54.4904 82.1275C54.2786 82.2079 54.0855 82.331 53.9233 82.4891C53.761 82.6473 53.633 82.8372 53.5473 83.0469C53.4615 83.2566 53.4198 83.4818 53.4247 83.7083C53.4652 86.5264 53.6377 88.7647 54.2253 90.5103C52.3211 91.2315 50.5258 92.6864 48.8844 94.8765C48.4647 95.4361 48.4647 96.2086 48.8844 96.7682C50.5118 98.9397 52.2932 100.39 54.1786 101.116C53.6781 102.81 53.4791 105.033 53.4279 107.93C53.4223 108.157 53.4634 108.382 53.5486 108.592C53.6338 108.802 53.7612 108.992 53.9231 109.151C54.0849 109.309 54.2776 109.433 54.4892 109.514C54.7008 109.595 54.9269 109.631 55.1532 109.621M58.5713 92.5667L55.4517 93.748C54.5874 94.0745 53.6175 94.7133 52.5916 95.8216C53.6066 96.919 54.5672 97.5563 55.4237 97.8858L58.405 99.0345L57.5003 102.095C57.2345 102.997 57.0558 104.231 56.961 105.962C60.3029 105.449 61.7142 104.211 62.4433 103.084C63.4925 101.462 63.808 99.0967 63.808 95.8216C63.808 92.5465 63.4925 90.1823 62.4433 88.5611C61.7127 87.4326 60.2982 86.1938 56.9516 85.6793C57.0402 87.358 57.2159 88.5362 57.5081 89.4082L58.5713 92.5667Z" fill="black"/>
</g>
<defs>
<clipPath id="clip0_18_5">
<rect width="183.253" height="162.892" fill="white" transform="translate(183.253 162.892) rotate(-180)"/>
</clipPath>
</defs>
</svg>
