<svg width="161" height="151" viewBox="0 0 161 151" fill="none" xmlns="http://www.w3.org/2000/svg">
<g clip-path="url(#clip0_18_13)">
<path d="M32.9226 30.9032C29.5247 33.4093 28.7993 38.1919 31.3 41.5971C33.8007 45.0023 38.573 45.7293 41.9708 43.2232L64.8204 26.3501L87.8418 26.3501C89.5217 26.3501 90.8961 27.7275 90.8961 29.411C90.8961 31.0945 89.5217 32.4719 87.8418 32.4719L72.5706 32.4719C69.1918 32.4719 66.4621 35.2075 66.4621 38.5936C66.4621 41.9797 69.1918 44.7154 72.5706 44.7154L102.789 44.7154C108.343 44.7154 113.727 42.8214 118.06 39.3588L126.631 32.4719L133.656 32.4719C137.034 32.4719 139.764 29.7362 139.764 26.3501L139.764 14.1067C139.764 10.7206 137.034 7.98492 133.656 7.98492L72.4751 7.98492C66.9393 7.98492 61.5371 9.76405 57.0703 13.0545L32.9035 30.9032L32.9226 30.9032Z" fill="#6C9F25"/>
<path d="M112.408 124.923C115.072 121.949 114.964 117.108 112.167 114.098C109.37 111.089 104.953 111.061 102.289 114.035L84.3786 134.057L63.6258 137.396C62.1115 137.639 60.6531 136.474 60.385 134.807C60.1168 133.14 61.1364 131.577 62.6507 131.333L76.417 129.119C79.4628 128.629 81.4878 125.524 80.9485 122.171C80.4091 118.818 77.5126 116.505 74.4668 116.994L47.2266 121.376C42.2191 122.182 37.6681 124.838 34.3135 128.895L27.6841 136.958L21.3516 137.976C18.3058 138.466 16.2808 141.571 16.8202 144.924L18.7704 157.049C19.3098 160.402 22.2063 162.715 25.2521 162.225L80.4036 153.354C85.3939 152.551 89.9803 150.006 93.4829 146.1L112.425 124.921L112.408 124.923Z" fill="#6C9F25"/>
<path fill-rule="evenodd" clip-rule="evenodd" d="M75.0856 58.5834C73.2826 56.8673 70.693 56.014 67.3169 56.8425C66.4869 55.7107 65.3733 54.8175 64.0884 54.2529C62.0118 53.3607 59.4051 53.3793 56.4657 55.0689C53.3912 56.5036 51.9099 58.6129 51.5011 60.8263C51.2244 62.331 51.4653 63.7579 51.8617 64.8833C49.2534 67.1651 48.4685 69.7702 48.8431 72.2246C49.1679 74.3479 50.3275 76.1618 51.4653 77.3929C51.266 78.2489 51.2459 79.137 51.4062 80.0011C51.8881 79.6592 52.1166 79.5006 52.6404 79.2877C53.4953 78.9395 54.1948 78.8991 54.972 78.8991C57.4201 78.8991 58.8362 79.1835 61.1708 79.8317C62.4939 80.1852 63.7645 80.7121 64.9495 81.3985L65.391 81.2089C65.946 80.9683 66.5591 80.8948 67.1552 80.9975L72.6157 81.941C72.4052 80.814 72.2841 79.6721 72.2536 78.526C72.1948 75.8004 72.8933 73.1118 74.2714 70.7595C75.6496 68.4072 77.6533 66.4833 80.0597 65.2019C79.431 64.5445 78.6688 64.0294 77.8245 63.6911C77.467 62.0543 76.6416 60.0647 75.0856 58.5834ZM59.8123 60.3196C59.9953 60.229 60.1944 60.1754 60.3981 60.1618C60.6018 60.1481 60.8062 60.1748 60.9996 60.2402C61.1931 60.3056 61.3717 60.4084 61.5254 60.5429C61.679 60.6773 61.8047 60.8407 61.8952 61.0237L63.1247 63.5107L65.6319 60.8263C65.9167 60.5413 66.3011 60.378 66.7039 60.3708C67.1068 60.3637 67.4967 60.5133 67.7914 60.788C68.0862 61.0628 68.2627 61.4413 68.2837 61.8437C68.3048 62.2461 68.1688 62.6409 67.9044 62.9449L64.5983 66.4858L65.8464 69.0055L67.9153 67.1247C68.2222 66.862 68.6193 66.7292 69.0225 66.7542C69.4256 66.7793 69.8032 66.9604 70.0752 67.259C70.3472 67.5577 70.4922 67.9505 70.4796 68.3543C70.467 68.758 70.2976 69.141 70.0075 69.422L67.2796 71.9013L68.921 75.2183C69.1006 75.5875 69.1268 76.0128 68.9939 76.4013C68.8611 76.7897 68.5799 77.1099 68.2118 77.2918C67.8437 77.4736 67.4186 77.5025 67.0293 77.3721C66.64 77.2416 66.3182 76.9624 66.134 76.5955L64.4319 73.1557L61.3791 73.7727C60.9841 73.8339 60.5807 73.7405 60.2527 73.512C59.9247 73.2834 59.6974 72.9373 59.618 72.5455C59.5385 72.1538 59.6131 71.7464 59.8261 71.4082C60.0392 71.07 60.3744 70.8268 60.762 70.7293L63.0066 70.2754L61.7693 67.7775L57.0455 68.4879C56.8399 68.5275 56.6283 68.5252 56.4236 68.481C56.2188 68.4368 56.0251 68.3517 55.8541 68.2308C55.6831 68.1099 55.5383 67.9557 55.4283 67.7774C55.3184 67.5991 55.2456 67.4005 55.2144 67.1934C55.1832 66.9863 55.1941 66.775 55.2466 66.5722C55.299 66.3694 55.3919 66.1794 55.5197 66.0134C55.6475 65.8474 55.8075 65.709 55.9901 65.6064C56.1727 65.5038 56.3741 65.4392 56.5823 65.4164L60.3222 64.8537L59.1082 62.3994C58.9263 62.0301 58.8982 61.6038 59.0302 61.2139C59.1622 60.824 59.4435 60.5024 59.8123 60.3196Z" fill="white"/>
<path fill-rule="evenodd" clip-rule="evenodd" d="M76.9052 82.726L76.1156 82.5721C75.8342 81.805 75.629 81.0121 75.5031 80.2048L75.4798 80.1115C75.3213 79.4633 75.2156 78.8929 75.2063 78.4639C75.1724 76.8002 75.4905 75.1482 76.1395 73.616C76.7885 72.0838 77.754 70.706 78.9725 69.5728C79.0679 69.4827 79.1647 69.4044 79.2632 69.3381C82.3953 66.5402 86.7755 66.0537 90.1672 68.8298C90.1283 65.0185 91.6749 61.2942 95.421 59.1336L96.7344 61.4061C93.5619 63.2356 92.3821 66.6599 92.9075 70.3205C100.143 67.9423 105.775 74.7862 103.661 82.6653C103.007 85.0835 101.625 87.2417 99.7017 88.8471L98.7535 88.516C95.9448 87.5414 92.4086 86.3616 89.5827 85.5829C86.8346 84.8244 83.2984 84.0394 80.4694 83.4487C79.2828 83.2007 78.0947 82.9598 76.9052 82.726ZM97.7618 75.4064C98.1662 75.3279 98.5852 75.4131 98.9268 75.6434C99.2684 75.8736 99.5046 76.23 99.5836 76.6343C99.868 78.0505 99.757 79.5177 99.2626 80.8749C98.7682 82.2322 97.9097 83.427 96.781 84.3285C96.4611 84.5882 96.0512 84.7102 95.6413 84.6677C95.2315 84.6251 94.8553 84.4215 94.5956 84.1016C94.3359 83.7817 94.2139 83.3717 94.2564 82.9619C94.299 82.552 94.5026 82.1758 94.8225 81.9161C95.5126 81.3685 96.0377 80.6405 96.3395 79.8127C96.6413 78.985 96.708 78.0899 96.5323 77.2266C96.4548 76.8226 96.5404 76.4044 96.7706 76.0636C97.0008 75.7227 97.3566 75.4869 97.7603 75.4079M55.2993 109.621C59.9625 109.362 62.8474 108.036 64.6256 106.094C65.3328 107.043 66.5188 107.593 67.8028 107.391C69.4115 107.137 71.0168 106.862 72.6182 106.565L72.6182 99.2832L76.0845 99.2832L76.0845 105.896C80.4678 105.01 85.7994 103.792 91.6765 102.156L91.6765 97.5532L95.1427 97.5532L95.1427 101.159C97.51 100.455 99.9489 99.6858 102.434 98.8464C103.082 98.6488 103.65 98.2482 104.053 97.7038C104.456 97.1593 104.673 96.4998 104.673 95.8224C104.673 95.1449 104.456 94.4854 104.053 93.941C103.65 93.3965 103.082 92.996 102.434 92.7983C96.6146 90.8379 90.7128 89.1301 84.7455 87.6798L84.7455 97.5532L81.2808 97.5532L81.2808 86.8637C75.5451 85.5611 70.8509 84.7342 67.8028 84.2524C67.2051 84.156 66.5923 84.2261 66.0319 84.455C65.4714 84.684 64.9849 85.0629 64.6256 85.5503C62.8474 83.6073 59.9625 82.2814 55.2993 82.0218C55.073 82.0111 54.8469 82.0471 54.635 82.1275C54.4232 82.2079 54.2301 82.331 54.0678 82.4891C53.9056 82.6473 53.7776 82.8372 53.6918 83.0469C53.6061 83.2566 53.5644 83.4818 53.5693 83.7083C53.6097 86.5264 53.7823 88.7647 54.3698 90.5103C52.4657 91.2315 50.6704 92.6864 49.029 94.8765C48.6093 95.4361 48.6093 96.2086 49.029 96.7682C50.6564 98.9397 52.4377 100.39 54.3232 101.116C53.8227 102.81 53.6237 105.033 53.5724 107.93C53.5669 108.157 53.608 108.382 53.6932 108.592C53.7783 108.802 53.9058 108.992 54.0676 109.151C54.2294 109.309 54.4222 109.433 54.6338 109.514C54.8454 109.595 55.0714 109.631 55.2978 109.621M58.7159 92.5667L55.5962 93.7481C54.732 94.0745 53.7621 94.7133 52.7362 95.8216C53.7512 96.919 54.7118 97.5563 55.5682 97.8858L58.5495 99.0345L57.6449 102.095C57.3791 102.997 57.2003 104.231 57.1055 105.962C60.4474 105.449 61.8588 104.211 62.5878 103.084C63.637 101.462 63.9526 99.0967 63.9526 95.8216C63.9526 92.5465 63.637 90.1823 62.5878 88.5611C61.8573 87.4326 60.4428 86.1938 57.0962 85.6793C57.1848 87.358 57.3604 88.5362 57.6527 89.4082L58.7159 92.5667Z" fill="white"/>
</g>
<defs>
<clipPath id="clip0_18_13">
<rect width="183.253" height="162.892" fill="white" transform="translate(183.398 162.892) rotate(-180)"/>
</clipPath>
</defs>
</svg>
